<?xml version="1.0" standalone="no"?>
<!DOCTYPE svg PUBLIC "-//W3C//DTD SVG 20010904//EN"
 "http://www.w3.org/TR/2001/REC-SVG-20010904/DTD/svg10.dtd">
<svg version="1.0" xmlns="http://www.w3.org/2000/svg"
 width="468.000000pt" height="468.000000pt" viewBox="0 0 468.000000 468.000000"
 preserveAspectRatio="xMidYMid meet">
<metadata>
Created by potrace 1.14, written by Peter Selinger 2001-2017
</metadata>
<g transform="translate(0.000000,468.000000) scale(0.100000,-0.100000)"
fill="#000000" stroke="none">
<path d="M1069 4676 c-2 -2 -24 -7 -49 -10 -25 -3 -60 -10 -77 -15 -18 -5 -33
-8 -33 -6 0 9 -177 -58 -245 -92 -119 -59 -206 -123 -310 -228 -185 -184 -298
-402 -339 -651 -22 -134 -22 -2550 0 -2669 31 -169 95 -332 181 -462 54 -83
67 -98 168 -198 136 -136 283 -226 468 -286 184 -60 142 -58 1547 -56 l1285 3
100 27 c55 15 109 31 120 36 221 94 339 172 475 318 139 149 251 360 289 543
6 30 14 66 18 80 11 38 13 2566 3 2630 -5 30 -12 69 -14 85 -18 109 -101 305
-183 429 -43 64 -189 221 -253 271 -96 76 -239 152 -368 195 -180 60 -149 59
-1523 59 -691 1 -1258 -1 -1260 -3z"/>
</g>
</svg>
